<svg version="1.1" xmlns="http://www.w3.org/2000/svg" viewBox="0 0 1403.034951280206 548.4565479339117" width="1403.034951280206" height="548.4565479339117">
  <!-- svg-source:excalidraw -->
  
  <defs>
    <style>
      @font-face {
        font-family: "Virgil";
        src: url("https://excalidraw.com/Virgil.woff2");
      }
      @font-face {
        font-family: "Cascadia";
        src: url("https://excalidraw.com/Cascadia.woff2");
      }
    </style>
  </defs>
  <g stroke-linecap="round" transform="translate(375.4286008562358 214.45654793391168) rotate(0 331.5 162)"><path d="M0.32 0.13 C228.77 1.41, 456.93 1.52, 663.78 0.72 M0.31 0.2 C155.15 -0.63, 310.31 -0.63, 663.26 0.24 M662.49 0.63 C661.51 110.03, 661.87 220.48, 663.83 324.57 M662.64 -0.57 C663.95 113, 664.27 226.36, 663.23 324.51 M662.46 323.96 C436.66 322.06, 209.9 321.51, -0.54 324.29 M662.75 324.29 C515.92 322.15, 368.56 322.44, 0.12 324.27 M-0.02 325.25 C2.19 200.32, 2.57 74.49, -0.73 0.8 M0.54 324.03 C-1.36 222.22, -2.4 120.69, 0.63 -0.25" stroke="#000000" stroke-width="1" fill="none"></path></g><g transform="translate(380.4286008562358 219.45654793391168) rotate(0 326.5 12.5)"><text x="326.5" y="17" font-family="Virgil, Segoe UI Emoji" font-size="20px" fill="#000000" text-anchor="middle" style="white-space: pre;" direction="ltr">postal-vote AWS</text></g><g stroke-linecap="round" transform="translate(276.00001525878906 425.0705223689006) rotate(0 98 44)"><path d="M-1.31 -1.73 L196.39 1.34 L195.27 87.58 L1.7 87.34" stroke="none" stroke-width="0" fill="#ced4da"></path><path d="M1.65 -0.88 C63.16 -2.2, 128.71 0.74, 195.73 1.01 M-0.48 0.29 C65.75 -1.17, 132 -0.96, 195.37 0.53 M196.97 -0.87 C193.85 27.9, 195 54.92, 194.09 88.02 M196.73 -0.69 C196.4 30.87, 196.54 60.04, 195.74 87.53 M197.47 89.81 C138.75 89.1, 78.06 90.07, 0.1 89.9 M196.96 87.96 C156.15 88.54, 117.17 87.8, -0.29 87.98 M-1.84 89.73 C-2.21 63.07, -0.42 37.41, -1.2 -1.95 M-0.14 88.48 C0.24 63.79, 1.16 40.99, 0.3 -0.44" stroke="#000000" stroke-width="1" fill="none"></path></g><g transform="translate(281.00001525878906 444.0705223689006) rotate(0 93 25)"><text x="93" y="17" font-family="Virgil, Segoe UI Emoji" font-size="20px" fill="#000000" text-anchor="middle" style="white-space: pre;" direction="ltr">POST /submit</text><text x="93" y="42" font-family="Virgil, Segoe UI Emoji" font-size="20px" fill="#000000" text-anchor="middle" style="white-space: pre;" direction="ltr">(API Gateway)</text></g><g stroke-linecap="round" transform="translate(10 424.0706673273967) rotate(0 98 44)"><path d="M-0.73 -0.72 C71.12 -1.2, 143.95 -1.93, 194.71 0.72 M-0.3 0.49 C40.63 -1.19, 83.54 -1.07, 195.77 0.95 M195.21 1.65 C196.98 27.04, 195.83 52.68, 194.52 88.55 M196.78 -0.91 C195.62 22.66, 194.97 47.38, 195.34 87.04 M196.11 87.43 C141.96 87.52, 92.71 88.43, 0.01 88.78 M195.22 87.04 C145.11 88.72, 94.04 89.28, -0.63 88.15 M0.22 89.53 C0.05 65.94, 1.81 45.94, 0.6 -1.17 M-0.93 88.4 C-0.5 55.89, -0.61 24.68, -0.29 0.5" stroke="#000000" stroke-width="1" fill="none"></path></g><g transform="translate(15 455.5706673273967) rotate(0 93 12.5)"><text x="93" y="17" font-family="Virgil, Segoe UI Emoji" font-size="20px" fill="#000000" text-anchor="middle" style="white-space: pre;" direction="ltr">User</text></g><g stroke-linecap="round" transform="translate(558.0499954223633 421.4706307063029) rotate(0 98 44)"><path d="M0.52 -1.51 C56.94 -2.4, 116.69 -2.54, 197.64 -1.91 M0.94 -0.43 C69.83 -0.21, 141.71 0.33, 195.22 -0.96 M197.15 -0.98 C198.39 26.44, 195.5 54.45, 196.77 87.41 M196.44 -0.52 C196.42 30.69, 195.8 61.15, 195.67 88.51 M198 88.54 C154.33 86.34, 114.1 88.5, -0.27 87.36 M196.44 87.48 C152.35 89.24, 106.17 89.99, -0.8 88.08 M-0.94 88.72 C1.15 55.13, 0.62 24.64, -0.86 -0.19 M0.92 88.92 C-0.05 57.01, -0.81 25.54, 0.89 -0.15" stroke="#000000" stroke-width="1" fill="none"></path></g><g transform="translate(563.0499954223633 440.4706307063029) rotate(0 93 25)"><text x="93" y="17" font-family="Virgil, Segoe UI Emoji" font-size="20px" fill="#000000" text-anchor="middle" style="white-space: pre;" direction="ltr">submit handler</text><text x="93" y="42" font-family="Virgil, Segoe UI Emoji" font-size="20px" fill="#000000" text-anchor="middle" style="white-space: pre;" direction="ltr">(AWS Lambda)</text></g><g stroke-linecap="round"><g transform="translate(211.9999771118164 468.0706673273967) rotate(0 26.832643286678945 0.36959571875631525)"><path d="M0.26 -0.92 C9.43 -0.78, 45.61 1.19, 54.72 1.66 M-1.06 1.21 C8.04 0.93, 44.87 0.07, 54.15 -0.12" stroke="#000000" stroke-width="1" fill="none"></path></g><g transform="translate(211.9999771118164 468.0706673273967) rotate(0 26.832643286678945 0.36959571875631525)"><path d="M27.46 10.88 C37 8.45, 44.41 5.89, 53.49 1.06 M28.08 9.8 C38.39 6, 49.28 1.4, 53.29 -0.11" stroke="#000000" stroke-width="1" fill="none"></path></g><g transform="translate(211.9999771118164 468.0706673273967) rotate(0 26.832643286678945 0.36959571875631525)"><path d="M27.05 -7.58 C36.83 -4.89, 44.36 -2.32, 53.49 1.06 M27.67 -8.66 C38.08 -5.22, 49.13 -2.58, 53.29 -0.11" stroke="#000000" stroke-width="1" fill="none"></path></g></g><g stroke-linecap="round"><g transform="translate(474.7499542236329 466.6927575547938) rotate(0 39.66707695013832 0.08030810763823126)"><path d="M-0.75 -1.17 C12.31 -0.87, 64.42 1.2, 77.86 1.33 M1.06 0.83 C14.53 0.82, 66.97 -0.44, 80.08 -0.52" stroke="#000000" stroke-width="1" fill="none"></path></g><g transform="translate(474.7499542236329 466.6927575547938) rotate(0 39.66707695013832 0.08030810763823126)"><path d="M50.11 8.63 C60.29 9.4, 64.77 5.67, 78.24 -0.25 M52.87 10.53 C61.18 7.49, 70.37 3.16, 79.08 -0.98" stroke="#000000" stroke-width="1" fill="none"></path></g><g transform="translate(474.7499542236329 466.6927575547938) rotate(0 39.66707695013832 0.08030810763823126)"><path d="M49.78 -11.89 C59.96 -5.75, 64.53 -4.12, 78.24 -0.25 M52.53 -9.99 C60.91 -6.02, 70.21 -3.34, 79.08 -0.98" stroke="#000000" stroke-width="1" fill="none"></path></g></g><g stroke-linecap="round" transform="translate(402.9999542236328 269.9206429133342) rotate(0 98 44)"><path d="M0.19 -0.06 C55.65 2.34, 112.41 1.64, 196.71 1.76 M-0.69 0.13 C59.77 -0.45, 119.99 -0.62, 196.41 -0.72 M197.99 -0.29 C196.29 26.89, 195.17 54.66, 194.06 87.32 M195.99 -0.99 C196.51 31.48, 196.45 60.68, 196.35 88.3 M194.71 87.3 C131.97 85.6, 65.74 87.72, -1.22 87.04 M195.8 87.32 C121.18 87.81, 45.54 88.02, 0.28 88.49 M-1.51 88.53 C0.54 55.3, 0.98 20.5, 1.43 -1.88 M0.46 87.28 C-0.12 55.85, 0.16 23.34, -0.43 -0.26" stroke="#000000" stroke-width="1" fill="none"></path></g><g transform="translate(407.9999542236328 288.9206429133342) rotate(0 93 25)"><text x="93" y="17" font-family="Virgil, Segoe UI Emoji" font-size="20px" fill="#000000" text-anchor="middle" style="white-space: pre;" direction="ltr">Email service</text><text x="93" y="42" font-family="Virgil, Segoe UI Emoji" font-size="20px" fill="#000000" text-anchor="middle" style="white-space: pre;" direction="ltr">(AWS SES)</text></g><g stroke-linecap="round" transform="translate(616.7999420166016 269.7206307063029) rotate(0 98 44)"><path d="M0.72 0.72 C72.86 2.22, 149.76 1.44, 194.3 -0.22 M-0.67 0.92 C53.18 -0.4, 106.61 -0.35, 195.56 -0.01 M197.93 -1.5 C196.34 28.93, 196.87 60.56, 194.92 86.55 M195.62 -0.83 C194.86 25.6, 194.69 50.78, 196.9 87.03 M197.39 89.22 C117.06 87.35, 38.66 88.8, 0.42 89.33 M195.75 88.05 C144.68 86.18, 93.08 85.77, -0.09 87.23 M0.86 89.25 C-0.8 68.85, 0.07 54.1, -1.79 -0.26 M-0.42 88.8 C0.02 66.84, -0.82 44.37, -0.98 -0.93" stroke="#000000" stroke-width="1" fill="none"></path></g><g transform="translate(621.7999420166016 288.7206307063029) rotate(0 93 25)"><text x="93" y="17" font-family="Virgil, Segoe UI Emoji" font-size="20px" fill="#000000" text-anchor="middle" style="white-space: pre;" direction="ltr">Monitoring service</text><text x="93" y="42" font-family="Virgil, Segoe UI Emoji" font-size="20px" fill="#000000" text-anchor="middle" style="white-space: pre;" direction="ltr">(AWS CloudWatch)</text></g><g stroke-linecap="round" transform="translate(827.9998931884766 269.7206307063029) rotate(0 98 44)"><path d="M-0.19 0.6 C52.15 -2.45, 107.05 -2.42, 197.17 0.91 M-0.23 0.13 C45.61 0.23, 93.21 1.75, 196.69 0.91 M196.15 -1.3 C197.97 35.09, 197.57 68.74, 197.63 88.68 M196.54 0.54 C195.83 19.67, 196.07 39.45, 196.97 87.48 M194.33 86.75 C130.4 88.27, 64.12 89.8, 0.38 89.29 M195.73 87.67 C129.23 86.22, 61.96 87.37, 0.12 88.13 M-0.65 87.77 C-2.29 67.23, 1.53 43.79, -0.53 0.53 M0.49 88.78 C-0.67 54.84, 0.2 23.56, 0.64 -0.9" stroke="#000000" stroke-width="1" fill="none"></path></g><g transform="translate(832.9998931884766 288.7206307063029) rotate(0 93 25)"><text x="93" y="17" font-family="Virgil, Segoe UI Emoji" font-size="20px" fill="#000000" text-anchor="middle" style="white-space: pre;" direction="ltr">Access control</text><text x="93" y="42" font-family="Virgil, Segoe UI Emoji" font-size="20px" fill="#000000" text-anchor="middle" style="white-space: pre;" direction="ltr">(AWS IAM)</text></g><g stroke-linecap="round" transform="translate(11.257014198908678 10) rotate(0 98 44)"><path d="M-1.7 1.42 C51.9 0.48, 103.47 -2.19, 196.77 1.06 M-0.62 -0.5 C70.65 0.83, 142.65 0.76, 195.89 0.27 M195.66 -1.25 C195.4 22.78, 193.79 48.61, 195.58 88.42 M195.9 0.05 C195.87 18.42, 197.35 37.4, 195.24 88.1 M196.82 87.63 C138.14 88.57, 81.94 89.78, 1.13 87.75 M195.06 88.42 C157.17 87.93, 118.11 88.95, 0.87 88.69 M-1.7 86.33 C-2.23 55.63, -0.27 26.59, 1.8 -1.7 M-0.2 87.48 C0.8 63.91, -0.19 38.1, -0.86 -0.74" stroke="#000000" stroke-width="1" fill="none"></path></g><g transform="translate(16.257014198908678 41.5) rotate(0 93 12.5)"><text x="93" y="17" font-family="Virgil, Segoe UI Emoji" font-size="20px" fill="#000000" text-anchor="middle" style="white-space: pre;" direction="ltr">Developer</text></g><g stroke-linecap="round" transform="translate(295.6570691305493 10.399948120117188) rotate(0 98 44)"><path d="M-1.14 -0.72 C59.5 -2.65, 121.23 0.89, 197.93 1.34 M0.58 0.85 C55.41 -0.28, 109.35 -0.32, 195.56 0.45 M196.08 -0.52 C194.27 27.69, 193.55 59.32, 196.84 86.39 M196.95 0.82 C194.72 24.73, 195.13 50.99, 195.55 87.82 M196.73 86.34 C144.91 85.35, 92.12 86.38, 0.37 89.59 M196.45 87.52 C138.42 87.41, 81.85 87.23, -0.81 87.2 M-0.05 89.36 C0.24 59.32, 0.83 29.1, -0.82 -1.47 M0.08 87.84 C-0.76 59.23, -0.34 29.28, 0.09 -0.18" stroke="#000000" stroke-width="1" fill="none"></path></g><g transform="translate(300.6570691305493 29.399948120117188) rotate(0 93 25)"><text x="93" y="17" font-family="Virgil, Segoe UI Emoji" font-size="20px" fill="#000000" text-anchor="middle" style="white-space: pre;" direction="ltr">Code repository </text><text x="93" y="42" font-family="Virgil, Segoe UI Emoji" font-size="20px" fill="#000000" text-anchor="middle" style="white-space: pre;" direction="ltr">(GitHub)</text></g><g stroke-linecap="round"><g transform="translate(210.4569958883618 55.26456668619491) rotate(0 39.77031304455363 0.4897470099132306)"><path d="M0.96 1.16 C14.32 1.19, 66.56 1.55, 79.53 1.31 M0.01 0.73 C13.29 0.93, 65.8 -0.39, 78.76 -0.41" stroke="#000000" stroke-width="1" fill="none"></path></g><g transform="translate(210.4569958883618 55.26456668619491) rotate(0 39.77031304455363 0.4897470099132306)"><path d="M52.65 10.81 C58.87 6.65, 63.22 5.83, 78.35 1.14 M51.28 10.18 C60.04 5.52, 70.08 2.1, 79.69 -0.46" stroke="#000000" stroke-width="1" fill="none"></path></g><g transform="translate(210.4569958883618 55.26456668619491) rotate(0 39.77031304455363 0.4897470099132306)"><path d="M52.36 -9.71 C58.84 -8.77, 63.27 -4.49, 78.35 1.14 M50.99 -10.34 C59.71 -7.86, 69.85 -4.14, 79.69 -0.46" stroke="#000000" stroke-width="1" fill="none"></path></g></g><g transform="translate(211.55694095672118 21.999984741210938) rotate(0 40.5 10)"><text x="40.5" y="14" font-family="Virgil, Segoe UI Emoji" font-size="16px" fill="#000000" text-anchor="middle" style="white-space: pre;" direction="ltr">Pushes to</text></g><g stroke-linecap="round" transform="translate(585.457041664729 10.399978637695312) rotate(0 98.00000000000006 44)"><path d="M1.82 -1.49 C42.37 -0.48, 79.56 3.32, 197.49 0.27 M0.16 0.6 C71.24 -1.26, 145.05 -2.39, 196.06 0.73 M194.61 0.42 C196.23 32.62, 194.42 66.28, 196.08 86.84 M195.56 -0.18 C195.64 18.88, 196.11 36.14, 196.33 88.69 M194.17 88.57 C153.14 90.82, 108.34 87.98, 0.17 86.03 M196.32 87.83 C142.78 89.06, 89.65 90, 0.05 88.21 M-1.1 86.89 C-1.76 58.97, -0.98 28.83, 1.87 0.73 M-0.96 88.32 C-1.11 55.31, -0.9 24.17, -0.18 0.39" stroke="#000000" stroke-width="1" fill="none"></path></g><g transform="translate(590.457041664729 29.399978637695312) rotate(0 93.00000000000006 25)"><text x="93" y="17" font-family="Virgil, Segoe UI Emoji" font-size="20px" fill="#000000" text-anchor="middle" style="white-space: pre;" direction="ltr">CI and CD</text><text x="93" y="42" font-family="Virgil, Segoe UI Emoji" font-size="20px" fill="#000000" text-anchor="middle" style="white-space: pre;" direction="ltr">(GitHub Actions)</text></g><g stroke-linecap="round"><g transform="translate(501.05698673308837 55.19548313775829) rotate(0 39.28207964486444 0.34287322673304743)"><path d="M-0.9 1.08 C12.13 0.83, 63.9 -0.45, 77.32 -0.39 M0.83 0.59 C14.28 0.98, 66.36 0.81, 79.46 0.65" stroke="#000000" stroke-width="1" fill="none"></path></g><g transform="translate(501.05698673308837 55.19548313775829) rotate(0 39.28207964486444 0.34287322673304743)"><path d="M53.13 9.29 C56.18 10.87, 65.8 6.72, 80.82 2.51 M50.46 11.29 C62.66 6.08, 72.43 3.83, 80.13 0.63" stroke="#000000" stroke-width="1" fill="none"></path></g><g transform="translate(501.05698673308837 55.19548313775829) rotate(0 39.28207964486444 0.34287322673304743)"><path d="M52.99 -11.23 C56.26 -4.89, 65.91 -4.27, 80.82 2.51 M50.33 -9.23 C62.61 -6.76, 72.43 -1.33, 80.13 0.63" stroke="#000000" stroke-width="1" fill="none"></path></g></g><g transform="translate(503.5570019918774 16.999984741210938) rotate(0 32.5 10)"><text x="32.5" y="14" font-family="Virgil, Segoe UI Emoji" font-size="16px" fill="#000000" text-anchor="middle" style="white-space: pre;" direction="ltr">Triggers</text></g><g stroke-linecap="round"><g transform="translate(661.7885589331654 101.44349474204563) rotate(0 -1.1256619114719797 50.749971890272604)"><path d="M0.67 1.15 C0.48 17.76, -1.48 82.9, -1.8 99.45 M-0.44 0.7 C-0.76 17.51, -2.68 84.51, -2.92 100.79" stroke="#000000" stroke-width="1" fill="none"></path></g><g transform="translate(661.7885589331654 101.44349474204563) rotate(0 -1.1256619114719797 50.749971890272604)"><path d="M-10.62 71.83 C-10.84 79.64, -6.86 85.2, -1.97 102.56 M-12.24 72.04 C-11.03 79.32, -8.04 86.85, -1.92 101.33" stroke="#000000" stroke-width="1" fill="none"></path></g><g transform="translate(661.7885589331654 101.44349474204563) rotate(0 -1.1256619114719797 50.749971890272604)"><path d="M9.89 72.3 C4.67 80.11, 3.63 85.55, -1.97 102.56 M8.28 72.51 C4.48 79.51, 2.46 86.93, -1.92 101.33" stroke="#000000" stroke-width="1" fill="none"></path></g></g><g transform="translate(694.0680425734749 142.55553351508252) rotate(0 148.5 10)"><text x="148.5" y="14" font-family="Virgil, Segoe UI Emoji" font-size="16px" fill="#000000" text-anchor="middle" style="white-space: pre;" direction="ltr">Updates (using Serverless framework)</text></g><g stroke-linecap="round" transform="translate(14.428132193429292 212.40802171495238) rotate(0 171 91)"><path d="M0.41 0.32 C93.91 2.29, 190.07 1.35, 341.5 -0.89 M-0.44 0.06 C93.91 2.07, 186.93 1.61, 341.96 0.5 M340.65 0.33 C344.49 51.09, 342.49 99.51, 341.31 180.74 M341.58 0.85 C343.59 62.18, 342.55 122.05, 341.75 182.64 M342.2 181.35 C256.23 181.32, 172.18 180.72, -0.45 182.26 M342 182.12 C223.55 180.15, 104.74 179.44, 0.3 181.73 M-0.99 180.11 C-1.2 141.16, -0.31 98.96, 0.45 0.24 M-0.38 181.26 C2.25 141.79, 1.87 102.84, -0.42 -0.92" stroke="#000000" stroke-width="1" fill="none"></path></g><g transform="translate(19.428132193429292 217.40802171495238) rotate(0 166 12.5)"><text x="166" y="17" font-family="Virgil, Segoe UI Emoji" font-size="20px" fill="#000000" text-anchor="middle" style="white-space: pre;" direction="ltr">GitHub Pages</text></g><g stroke-linecap="round" transform="translate(90.52746206616587 258.8167443653897) rotate(0 98 44)"><path d="M0.76 1.99 C62.59 3.83, 126.29 1.37, 195.86 -1.13 M-0.29 0.27 C61.03 -0.27, 124.67 -0.52, 196.68 -0.72 M196.3 -1.59 C197.59 32.73, 198.01 67.81, 195.09 86.31 M196.57 0.51 C195.02 28.42, 196.48 55.76, 196.67 88.14 M197.27 88.41 C141.38 87.08, 84.93 86.45, -0.69 87.98 M196.27 88.75 C132.58 87.48, 71.04 89.19, 0.19 88.66 M1.07 88.46 C-1.79 61.41, -1.57 36.72, 1.74 0.36 M-0.97 87.2 C-0.58 55.92, -0.21 25.56, -0.54 -0.57" stroke="#000000" stroke-width="1" fill="none"></path></g><g transform="translate(95.52746206616587 277.8167443653897) rotate(0 93 25)"><text x="93" y="17" font-family="Virgil, Segoe UI Emoji" font-size="20px" fill="#000000" text-anchor="middle" style="white-space: pre;" direction="ltr">Static site</text><text x="93" y="42" font-family="Virgil, Segoe UI Emoji" font-size="20px" fill="#000000" text-anchor="middle" style="white-space: pre;" direction="ltr">(hosting)</text></g><g stroke-linecap="round"><g transform="translate(590.3706483158692 102.9367419770343) rotate(0 -135.07143656786292 50.765912314598594)"><path d="M1 0.33 C-44.12 17.44, -225.02 85.03, -270.2 102.07 M0.07 -0.54 C-45.26 16.24, -226 83.23, -271.14 100.1" stroke="#000000" stroke-width="1" fill="none"></path></g><g transform="translate(590.3706483158692 102.9367419770343) rotate(0 -135.07143656786292 50.765912314598594)"><path d="M-247.75 80.68 C-255.79 87.71, -262.79 92.32, -272.6 101.88 M-248.96 80.61 C-256.75 87.35, -263.39 94.47, -271.91 99.2" stroke="#000000" stroke-width="1" fill="none"></path></g><g transform="translate(590.3706483158692 102.9367419770343) rotate(0 -135.07143656786292 50.765912314598594)"><path d="M-240.59 99.91 C-251 100.39, -260.47 98.38, -272.6 101.88 M-241.8 99.85 C-252.29 99.69, -261.47 99.98, -271.91 99.2" stroke="#000000" stroke-width="1" fill="none"></path></g></g><g transform="translate(267.15282633947936 130.83592974950398) rotate(0 79 20)"><text x="79" y="14" font-family="Virgil, Segoe UI Emoji" font-size="16px" fill="#000000" text-anchor="middle" style="white-space: pre;" direction="ltr">Builds (using React)</text><text x="79" y="34" font-family="Virgil, Segoe UI Emoji" font-size="16px" fill="#000000" text-anchor="middle" style="white-space: pre;" direction="ltr">and updates</text></g><g transform="translate(148.2917409679418 363.6435036927593) rotate(0 24 10)"><text x="24" y="14" font-family="Virgil, Segoe UI Emoji" font-size="16px" fill="#000000" text-anchor="middle" style="white-space: pre;" direction="ltr">Loads</text></g><g transform="translate(219.2202818789351 437.1864550041431) rotate(0 19.5 10)"><text x="19.5" y="14" font-family="Virgil, Segoe UI Emoji" font-size="16px" fill="#000000" text-anchor="middle" style="white-space: pre;" direction="ltr">Calls</text></g><g transform="translate(485.1202757754195 434.78649162523686) rotate(0 30 10)"><text x="30" y="14" font-family="Virgil, Segoe UI Emoji" font-size="16px" fill="#000000" text-anchor="middle" style="white-space: pre;" direction="ltr">Invokes</text></g><g stroke-linecap="round"><g transform="translate(554.4881987767174 413.84390131273193) rotate(0 -15.499625555971534 -25.046989284048834)"><path d="M0.47 -0.63 C-4.93 -8.89, -26.25 -41.77, -31.47 -49.89 M-0.74 1.65 C-5.82 -6.93, -23.92 -42.95, -29.06 -51.75" stroke="#000000" stroke-width="1" fill="none"></path></g><g transform="translate(554.4881987767174 413.84390131273193) rotate(0 -15.499625555971534 -25.046989284048834)"><path d="M-8.05 -33.06 C-14.43 -39.39, -21.86 -48.19, -28.95 -50.23 M-7.14 -32.95 C-11.45 -37.47, -17.32 -40.12, -28.89 -51.26" stroke="#000000" stroke-width="1" fill="none"></path></g><g transform="translate(554.4881987767174 413.84390131273193) rotate(0 -15.499625555971534 -25.046989284048834)"><path d="M-25.85 -23.48 C-25.48 -33.49, -26.19 -45.91, -28.95 -50.23 M-24.94 -23.37 C-25.3 -30.06, -27.14 -34.88, -28.89 -51.26" stroke="#000000" stroke-width="1" fill="none"></path></g></g><g stroke-linecap="round"><g transform="translate(676.4035907982059 411.45320915453385) rotate(0 14.68594378476962 -22.786830771183595)"><path d="M1.09 -0.72 C5.62 -8.65, 22.62 -39.41, 26.99 -47.08 M0.2 1.51 C5.12 -6.32, 24.24 -38.05, 29.17 -45.91" stroke="#000000" stroke-width="1" fill="none"></path></g><g transform="translate(676.4035907982059 411.45320915453385) rotate(0 14.68594378476962 -22.786830771183595)"><path d="M22.55 -21.04 C24.02 -28.04, 26.08 -36.09, 27.29 -44.94 M22.81 -19.67 C25.68 -27.77, 26.98 -38.3, 30.08 -45.61" stroke="#000000" stroke-width="1" fill="none"></path></g><g transform="translate(676.4035907982059 411.45320915453385) rotate(0 14.68594378476962 -22.786830771183595)"><path d="M6.75 -30.73 C12.7 -35.16, 19.18 -40.49, 27.29 -44.94 M7.02 -29.37 C15.22 -34.17, 21.88 -41.4, 30.08 -45.61" stroke="#000000" stroke-width="1" fill="none"></path></g></g><g stroke-linecap="round"><g transform="translate(762.3042491777569 419.54305588439354) rotate(0 51.40110741574313 -25.437900617448605)"><path d="M0.1 0.89 C17.39 -7.54, 86.72 -41.52, 104.1 -50.21 M-1.3 0.31 C15.83 -8.46, 85.82 -43.39, 103.36 -51.77" stroke="#000000" stroke-width="1" fill="none"></path></g><g transform="translate(762.3042491777569 419.54305588439354) rotate(0 51.40110741574313 -25.437900617448605)"><path d="M84.05 -29.48 C91.2 -36.19, 96.35 -45.66, 104.47 -50.17 M81.62 -29.33 C89.48 -37.78, 96.17 -45.84, 102.64 -51.09" stroke="#000000" stroke-width="1" fill="none"></path></g><g transform="translate(762.3042491777569 419.54305588439354) rotate(0 51.40110741574313 -25.437900617448605)"><path d="M75.02 -47.9 C85.22 -48.52, 93.36 -51.87, 104.47 -50.17 M72.59 -47.76 C83.38 -49.91, 93.18 -51.63, 102.64 -51.09" stroke="#000000" stroke-width="1" fill="none"></path></g></g><g stroke-linecap="round"><g transform="translate(117.43529856187786 418.95154667313454) rotate(0 11.302794079122009 -32.72818750936275)"><path d="M1 -1.11 C4.84 -12.06, 19.04 -53.93, 22.54 -64.76 M0.06 0.92 C3.81 -10.44, 18.22 -55.4, 21.73 -66.38" stroke="#000000" stroke-width="1" fill="none"></path></g><g transform="translate(117.43529856187786 418.95154667313454) rotate(0 11.302794079122009 -32.72818750936275)"><path d="M21.05 -35.98 C23.95 -44.57, 21.48 -53.56, 20.34 -66.98 M22.9 -37.1 C23.19 -42.57, 23.08 -48.82, 21.38 -66.41" stroke="#000000" stroke-width="1" fill="none"></path></g><g transform="translate(117.43529856187786 418.95154667313454) rotate(0 11.302794079122009 -32.72818750936275)"><path d="M1.51 -42.24 C9.51 -49.38, 12.1 -56.74, 20.34 -66.98 M3.36 -43.36 C7.81 -47.53, 11.89 -52.44, 21.38 -66.41" stroke="#000000" stroke-width="1" fill="none"></path></g></g><g stroke-linecap="round"><g transform="translate(760.5349436508116 470.01746722324145) rotate(0 172.9297957930621 0.96178026274319)"><path d="M0.02 0.37 C58.04 0.63, 289.57 2.37, 347.28 2.42 M-1.42 -0.49 C56.6 -0.63, 289.07 0.43, 346.9 0.77" stroke="#000000" stroke-width="1" fill="none"></path></g><g transform="translate(760.5349436508116 470.01746722324145) rotate(0 172.9297957930621 0.96178026274319)"><path d="M319.27 12.7 C326.61 8.72, 330.24 4.46, 345.04 -0.91 M319.37 11.73 C325.16 9.59, 332.56 6.91, 346.33 1.2" stroke="#000000" stroke-width="1" fill="none"></path></g><g transform="translate(760.5349436508116 470.01746722324145) rotate(0 172.9297957930621 0.96178026274319)"><path d="M319.38 -7.82 C326.84 -7.07, 330.44 -6.59, 345.04 -0.91 M319.48 -8.79 C325.26 -6.11, 332.63 -3.97, 346.33 1.2" stroke="#000000" stroke-width="1" fill="none"></path></g></g><g stroke-linecap="round" transform="translate(1111.8850565658506 431.86934579295973) rotate(0 140 44)"><path d="M-0.02 -0.89 C103.27 -2.47, 205.29 -0.44, 278.66 1.52 M-0.39 0.15 C104.59 0.21, 208.1 -0.01, 280.76 0.55 M278.82 -0.62 C281.12 27.73, 281.9 58.33, 281.68 86.01 M279.81 0.82 C278.88 30.22, 280.05 60.81, 280.11 88.4 M279.97 88.88 C214.58 85.14, 150.21 86.62, -0.2 89.13 M279.29 87.86 C194.81 86.5, 110.25 86.24, 0.64 88.28 M1.55 88.24 C-1.66 57.66, -2.44 24.41, 1.7 0.04 M-0.87 88.12 C0.63 65.44, -0.44 43.45, -0.63 -0.3" stroke="#000000" stroke-width="1" fill="none"></path></g><g transform="translate(1116.8850565658506 450.86934579295973) rotate(0 135 25)"><text x="135" y="17" font-family="Virgil, Segoe UI Emoji" font-size="20px" fill="#000000" text-anchor="middle" style="white-space: pre;" direction="ltr">Postcode to ERO API</text><text x="135" y="42" font-family="Virgil, Segoe UI Emoji" font-size="20px" fill="#000000" text-anchor="middle" style="white-space: pre;" direction="ltr">(WhereDoIVote)</text></g><g stroke-linecap="round" transform="translate(1113.034951280206 318.8694373456941) rotate(0 140 44)"><path d="M1.43 -1.53 C102.85 0.7, 207.45 0.47, 281.29 -0.86 M0.11 0.58 C99.35 -1.12, 199.41 -0.07, 280.43 -0.25 M279.55 -0.84 C280.41 25.46, 279.84 54.2, 281.88 89.85 M280.25 -0.97 C280.4 22.62, 280.17 43.43, 280.12 87.72 M280.52 88.67 C215.04 87.42, 148.43 86.21, -1.18 88.48 M279.54 87.44 C218.33 88.16, 156.89 89.28, 0.5 87.92 M-0.61 89.15 C0.68 58.43, 2.02 31.11, 0.04 0.35 M0.39 88.84 C0.24 65.38, 1.14 42.65, 0.02 -0.62" stroke="#000000" stroke-width="1" fill="none"></path></g><g transform="translate(1118.034951280206 337.8694373456941) rotate(0 135 25)"><text x="135" y="17" font-family="Virgil, Segoe UI Emoji" font-size="20px" fill="#000000" text-anchor="middle" style="white-space: pre;" direction="ltr">Bot detection API</text><text x="135" y="42" font-family="Virgil, Segoe UI Emoji" font-size="20px" fill="#000000" text-anchor="middle" style="white-space: pre;" direction="ltr">(reCAPTCHA)</text></g><g stroke-linecap="round"><g transform="translate(760.3206799762286 459.31626203253296) rotate(0 173.1173575960862 -47.62272766063669)"><path d="M0.67 -0.27 C58.46 -15.86, 289.14 -77.68, 346.66 -93.13 M-0.43 -1.45 C57.23 -17.44, 288.37 -79.4, 345.9 -94.98" stroke="#000000" stroke-width="1" fill="none"></path></g><g transform="translate(760.3206799762286 459.31626203253296) rotate(0 173.1173575960862 -47.62272766063669)"><path d="M320.9 -77.15 C329.41 -83.84, 336.95 -86.23, 345.46 -96.29 M322.08 -78.59 C328.21 -82.46, 337.78 -89.64, 345.54 -94.15" stroke="#000000" stroke-width="1" fill="none"></path></g><g transform="translate(760.3206799762286 459.31626203253296) rotate(0 173.1173575960862 -47.62272766063669)"><path d="M315.57 -96.97 C325.72 -97.83, 334.84 -94.36, 345.46 -96.29 M316.74 -98.41 C324.48 -96.05, 335.74 -96.98, 345.54 -94.15" stroke="#000000" stroke-width="1" fill="none"></path></g></g></svg>