<svg version="1.1" xmlns="http://www.w3.org/2000/svg" viewBox="0 0 582.3926355271112 2018.2859911237445" width="582.3926355271112" height="2018.2859911237445">
  <!-- svg-source:excalidraw -->
  
  <defs>
    <style>
      @font-face {
        font-family: "Virgil";
        src: url("https://excalidraw.com/Virgil.woff2");
      }
      @font-face {
        font-family: "Cascadia";
        src: url("https://excalidraw.com/Cascadia.woff2");
      }
    </style>
  </defs>
  <g stroke-linecap="round" transform="translate(41.82112848191059 10) rotate(0 90 43.142852783203125)"><path d="M-1.15 -1.25 C71.58 -2.66, 139.37 -2.6, 179.9 1.68 M-0.18 0.37 C36.35 -1.62, 74.13 -0.99, 179.01 -0.05 M178.08 0.58 C177.83 25.13, 179.31 52.11, 179.69 85.88 M179.39 -0.92 C180.46 29.45, 180.4 57.92, 179.68 85.51 M178.49 85.18 C144.02 84.13, 109.04 84.78, -0.93 84.73 M179.92 85.55 C143.38 87.11, 104.73 86.93, 0.45 85.92 M1.31 85.02 C1.3 58.89, 0.24 28.1, -1.87 1.26 M-0.77 85.43 C1.29 69.11, -0.38 50.99, -0.9 -0.73" stroke="#000000" stroke-width="1" fill="none"></path></g><g transform="translate(46.82112848191059 40.642852783203125) rotate(0 85 12.5)"><text x="85" y="17" font-family="Virgil, Segoe UI Emoji" font-size="20px" fill="#000000" text-anchor="middle" style="white-space: pre;" direction="ltr">Start</text></g><g stroke-linecap="round"><g transform="translate(130.25810329175852 105.47044761132975) rotate(0 -0.21315380936937345 37.41849003137747)"><path d="M-0.75 0.99 C-1.1 13.27, -1.37 60.95, -1.49 72.98 M1.06 0.47 C1.02 12.99, 0.71 62.03, 0.68 74.37" stroke="#000000" stroke-width="1" fill="none"></path></g><g transform="translate(130.25810329175852 105.47044761132975) rotate(0 -0.21315380936937345 37.41849003137747)"><path d="M-7.8 44.41 C-6.53 54.47, -2.58 67.76, -1.18 76.18 M-10.37 46.09 C-5.97 57.64, -2.63 67.95, 0.71 73.94" stroke="#000000" stroke-width="1" fill="none"></path></g><g transform="translate(130.25810329175852 105.47044761132975) rotate(0 -0.21315380936937345 37.41849003137747)"><path d="M12.72 44.5 C6.76 54.4, 3.49 67.65, -1.18 76.18 M10.15 46.18 C6.59 57.77, 1.97 68.04, 0.71 73.94" stroke="#000000" stroke-width="1" fill="none"></path></g></g><g stroke-linecap="round" transform="translate(13.249743507022231 185.85712105887274) rotate(0 114 109.14287022181918)"><path d="M113.28 -0.49 C140.08 25.66, 170.86 50.61, 229.82 111.76 M114.96 -0.4 C147.88 31.07, 179.11 63.12, 227.58 109.82 M226.97 109.67 C205.02 130.78, 181.78 153.92, 114.31 219.16 M228.41 110.7 C199.89 136.36, 172.31 161.53, 115.96 217.53 M114.2 219.87 C89.61 193.19, 62.36 167.95, 0.44 111.37 M114.59 218.1 C81.66 188.21, 48.34 156.54, -0.51 110.06 M1.63 109.79 C42.58 67.45, 85.98 27.19, 114.02 -1.71 M0.35 109.19 C26.39 83.53, 51.6 60.74, 114.8 0.65" stroke="#000000" stroke-width="1" fill="none"></path></g><g transform="translate(18.24974350702223 257.4999912806918) rotate(0 109 37.5)"><text x="109" y="18" font-family="Virgil, Segoe UI Emoji" font-size="20px" fill="#000000" text-anchor="middle" style="white-space: pre;" direction="ltr">Is user</text><text x="109" y="43" font-family="Virgil, Segoe UI Emoji" font-size="20px" fill="#000000" text-anchor="middle" style="white-space: pre;" direction="ltr">registered</text><text x="109" y="68" font-family="Virgil, Segoe UI Emoji" font-size="20px" fill="#000000" text-anchor="middle" style="white-space: pre;" direction="ltr">to vote?</text></g><g stroke-linecap="round"><g transform="translate(247.3434298725931 293.24866625618233) rotate(0 68.29419550423597 -0.4026441251895676)"><path d="M-0.29 -1 C22.36 -0.88, 114.19 -0.43, 136.88 -0.3 M1.76 1.09 C24.15 0.98, 113.17 -1.38, 135.9 -1.89" stroke="#000000" stroke-width="1" fill="none"></path></g><g transform="translate(247.3434298725931 293.24866625618233) rotate(0 68.29419550423597 -0.4026441251895676)"><path d="M106.3 8.95 C120.44 3.07, 131.26 2.5, 135.54 -1.15 M108.56 8.06 C113.75 6.91, 119.2 4.42, 134.94 -1.6" stroke="#000000" stroke-width="1" fill="none"></path></g><g transform="translate(247.3434298725931 293.24866625618233) rotate(0 68.29419550423597 -0.4026441251895676)"><path d="M105.8 -11.56 C119.95 -9.59, 130.97 -2.31, 135.54 -1.15 M108.06 -12.45 C113.34 -9.32, 118.9 -7.54, 134.94 -1.6" stroke="#000000" stroke-width="1" fill="none"></path></g></g><g transform="translate(301.03547523135217 260.9285583496096) rotate(0 12.5 12.5)"><text x="12.5" y="17" font-family="Virgil, Segoe UI Emoji" font-size="20px" fill="#000000" text-anchor="middle" style="white-space: pre;" direction="ltr">No</text></g><g stroke-linecap="round" transform="translate(392.3926355271112 251.14288330078102) rotate(0 90 43.142852783203125)"><path d="M1.68 -1.86 C51.44 1.85, 98.89 0.84, 178.17 -0.08 M-0.05 0.03 C46.4 1.6, 92.69 2.08, 179.1 -0.52 M179.6 0.73 C179.21 25.36, 178.67 47.11, 181.51 87.11 M179.22 -0.98 C180.83 31.15, 179.11 63.26, 180.15 85.89 M178.45 84.46 C112.14 86.82, 43.23 83.98, 1.85 85.46 M179.63 86.65 C128.91 87.15, 79.5 86.46, 0.43 87.1 M1.26 84.35 C-0.93 59.58, -1.47 34.59, 1.73 0.69 M-0.73 87.18 C0.01 68.01, 0.65 47.99, 0.63 0.26" stroke="#000000" stroke-width="1" fill="none"></path></g><g transform="translate(397.3926355271112 256.78573608398415) rotate(0 85 37.5)"><text x="85" y="18" font-family="Virgil, Segoe UI Emoji" font-size="20px" fill="#000000" text-anchor="middle" style="white-space: pre;" direction="ltr">Direct user to </text><text x="85" y="43" font-family="Virgil, Segoe UI Emoji" font-size="20px" fill="#000000" text-anchor="middle" style="white-space: pre;" direction="ltr">register to vote</text><text x="85" y="68" font-family="Virgil, Segoe UI Emoji" font-size="20px" fill="#000000" text-anchor="middle" style="white-space: pre;" direction="ltr">service</text></g><g stroke-linecap="round"><g transform="translate(127.11799928751839 410.54579254220494) rotate(0 -0.2507402142534829 35.719088565253344)"><path d="M-1.12 1.09 C-1 12.49, 0.43 58.16, 0.61 69.4 M0.5 0.62 C0.55 12.72, 0.39 59.38, 0.22 70.82" stroke="#000000" stroke-width="1" fill="none"></path></g><g transform="translate(127.11799928751839 410.54579254220494) rotate(0 -0.2507402142534829 35.719088565253344)"><path d="M-8 44.31 C-6.97 51.73, -5.49 59.23, -0.58 72.01 M-10.24 42.37 C-8.77 48.52, -6.7 53.39, 0.06 70.71" stroke="#000000" stroke-width="1" fill="none"></path></g><g transform="translate(127.11799928751839 410.54579254220494) rotate(0 -0.2507402142534829 35.719088565253344)"><path d="M12.52 44.47 C7.49 51.65, 2.93 59.11, -0.58 72.01 M10.29 42.54 C7.63 48.66, 5.58 53.5, 0.06 70.71" stroke="#000000" stroke-width="1" fill="none"></path></g></g><g stroke-linecap="round" transform="translate(10.106851486932783 487.26472169865997) rotate(0 114 109.14287022181918)"><path d="M116.76 -0.36 C158.12 39.39, 200.69 82.67, 229.18 108.02 M114.82 -0.96 C148.67 32.03, 181.21 65.23, 227.89 109.85 M228.88 108.77 C194.93 141.42, 165.98 171.61, 114.69 217.64 M227.24 109.25 C201.29 135.28, 176.36 159.96, 114.93 217.82 M116.37 218.12 C88.94 196.3, 64 169.99, -1.19 110.9 M115.06 218.94 C83.7 189.63, 54.88 160.59, -0.07 109.06 M-1.71 108.47 C41.08 72.39, 85.21 29.13, 114.52 -1.8 M0.65 110.44 C24.71 85.86, 51.55 59.53, 115.22 -0.98" stroke="#000000" stroke-width="1" fill="none"></path></g><g transform="translate(15.106851486932783 546.407591920479) rotate(0 109 50)"><text x="109" y="17" font-family="Virgil, Segoe UI Emoji" font-size="20px" fill="#000000" text-anchor="middle" style="white-space: pre;" direction="ltr">Is user</text><text x="109" y="42" font-family="Virgil, Segoe UI Emoji" font-size="20px" fill="#000000" text-anchor="middle" style="white-space: pre;" direction="ltr">registered in</text><text x="109" y="67" font-family="Virgil, Segoe UI Emoji" font-size="20px" fill="#000000" text-anchor="middle" style="white-space: pre;" direction="ltr">Northern</text><text x="109" y="92" font-family="Virgil, Segoe UI Emoji" font-size="20px" fill="#000000" text-anchor="middle" style="white-space: pre;" direction="ltr">Ireland?</text></g><g stroke-linecap="round"><g transform="translate(244.53549266996902 594.8570338657926) rotate(0 66.85746785642846 0.4476527294361574)"><path d="M-0.22 0.45 C21.83 0.23, 111 -0.27, 133.37 -0.27 M-1.79 -0.36 C20.52 0.14, 113.04 1.43, 135.5 1.24" stroke="#000000" stroke-width="1" fill="none"></path></g><g transform="translate(244.53549266996902 594.8570338657926) rotate(0 66.85746785642846 0.4476527294361574)"><path d="M108.01 9.54 C118.12 6.67, 130.43 1.53, 135.4 1.31 M107.55 10.47 C114.04 8.87, 121.72 6.27, 135.3 1.61" stroke="#000000" stroke-width="1" fill="none"></path></g><g transform="translate(244.53549266996902 594.8570338657926) rotate(0 66.85746785642846 0.4476527294361574)"><path d="M108.11 -10.98 C118.37 -5.84, 130.63 -2.96, 135.4 1.31 M107.65 -10.06 C114.08 -6.37, 121.73 -3.68, 135.3 1.61" stroke="#000000" stroke-width="1" fill="none"></path></g></g><g transform="translate(291.74983070010217 562.3570861816409) rotate(0 16.5 12.5)"><text x="16.5" y="17" font-family="Virgil, Segoe UI Emoji" font-size="20px" fill="#000000" text-anchor="middle" style="white-space: pre;" direction="ltr">Yes</text></g><g stroke-linecap="round" transform="translate(387.1069909958612 552.5714111328125) rotate(0 90 43.142852783203125)"><path d="M-0.08 -0.8 C51.96 -0.33, 101.45 1.71, 179.15 -0.36 M-0.52 -0.16 C36.64 1.47, 73.29 1.99, 179.65 0.44 M180.82 1.4 C178.89 19.94, 177.64 39.2, 181.93 84.77 M179.6 0.79 C179.45 18.93, 178.75 37.87, 180.22 86.97 M179.17 85.91 C126.31 88.85, 74.26 88.67, -1.02 86.4 M180.81 86.18 C114.17 86.12, 49.1 86.09, -0.49 85.43 M0.69 84.67 C0.25 65.21, -0.72 49.51, -0.4 1.3 M0.26 85.58 C0.6 55.61, 0.41 26.1, 0.76 0.18" stroke="#000000" stroke-width="1" fill="none"></path></g><g transform="translate(392.1069909958612 570.7142639160156) rotate(0 85 25)"><text x="85" y="17" font-family="Virgil, Segoe UI Emoji" font-size="20px" fill="#000000" text-anchor="middle" style="white-space: pre;" direction="ltr">Direct user to </text><text x="85" y="42" font-family="Virgil, Segoe UI Emoji" font-size="20px" fill="#000000" text-anchor="middle" style="white-space: pre;" direction="ltr">EONI guidance</text></g><g transform="translate(142.46402922130778 422.3571297781807) rotate(0 16.5 12.5)"><text x="16.5" y="17" font-family="Virgil, Segoe UI Emoji" font-size="20px" fill="#000000" text-anchor="middle" style="white-space: pre;" direction="ltr">Yes</text></g><g stroke-linecap="round"><g transform="translate(127.43302847205655 712.1762734981032) rotate(0 -0.09519396976679673 35.39569970596699)"><path d="M0.71 -1.19 C0.73 10.63, 0.26 58.53, 0.08 70.42 M-0.37 0.8 C-0.51 12.87, -0.73 60.22, -0.9 71.98" stroke="#000000" stroke-width="1" fill="none"></path></g><g transform="translate(127.43302847205655 712.1762734981032) rotate(0 -0.09519396976679673 35.39569970596699)"><path d="M-12.89 43.6 C-8 51.16, -5.46 58.45, -0.32 70.18 M-11.06 43.5 C-8.1 50.39, -5.54 57.15, -1.82 72.73" stroke="#000000" stroke-width="1" fill="none"></path></g><g transform="translate(127.43302847205655 712.1762734981032) rotate(0 -0.09519396976679673 35.39569970596699)"><path d="M7.63 43.78 C6.45 51.41, 2.92 58.65, -0.32 70.18 M9.46 43.68 C7.32 50.51, 4.78 57.22, -1.82 72.73" stroke="#000000" stroke-width="1" fill="none"></path></g></g><g transform="translate(144.24963887532545 728.0232314747127) rotate(0 12.5 12.5)"><text x="12.5" y="17" font-family="Virgil, Segoe UI Emoji" font-size="20px" fill="#000000" text-anchor="middle" style="white-space: pre;" direction="ltr">No</text></g><g stroke-linecap="round" transform="translate(33.24965631394184 794.8571777343748) rotate(0 90 43.142852783203125)"><path d="M0.06 -0.85 C64.3 -1.83, 129.91 -1.72, 178.97 -0.33 M0.37 -0.35 C52.43 -0.25, 103.05 1.12, 180.41 0.7 M178.03 1.93 C178.21 23.04, 178.61 49.39, 179.2 87.87 M179.09 0.22 C180.29 25.17, 178.87 51.43, 179.59 86.1 M180.73 85.26 C136.84 86.93, 92.2 86.48, 1.63 86.08 M179.03 85.79 C126.35 86.65, 73.56 88.28, 0.35 85.48 M1.79 85.89 C2.07 63.36, -0.12 39.92, 0.52 -1.41 M-0.8 87.05 C1.02 58.87, 1.28 31.63, 0.73 0.98" stroke="#000000" stroke-width="1" fill="none"></path></g><g transform="translate(38.24965631394184 813.0000305175779) rotate(0 85 25)"><text x="85" y="17" font-family="Virgil, Segoe UI Emoji" font-size="20px" fill="#000000" text-anchor="middle" style="white-space: pre;" direction="ltr">Collect applicant</text><text x="85" y="42" font-family="Virgil, Segoe UI Emoji" font-size="20px" fill="#000000" text-anchor="middle" style="white-space: pre;" direction="ltr">details</text></g><g stroke-linecap="round"><g transform="translate(129.18932322725072 893.6404831059242) rotate(0 -0.08056508396487061 34.29443275315934)"><path d="M-0.51 -0.22 C-0.76 11.44, -1.42 58.43, -1.59 69.96 M1.43 -1.38 C1.53 9.9, 0.62 56.13, 0.52 68.03" stroke="#000000" stroke-width="1" fill="none"></path></g><g transform="translate(129.18932322725072 893.6404831059242) rotate(0 -0.08056508396487061 34.29443275315934)"><path d="M-9.69 37.77 C-5.83 46.29, -4.54 56.13, 0.29 67.72 M-8.9 39.08 C-7.4 48.41, -3.31 56.28, 0.36 67.7" stroke="#000000" stroke-width="1" fill="none"></path></g><g transform="translate(129.18932322725072 893.6404831059242) rotate(0 -0.08056508396487061 34.29443275315934)"><path d="M10.82 38.07 C8.63 46.41, 3.87 56.16, 0.29 67.72 M11.62 39.37 C7.38 48.55, 5.73 56.34, 0.36 67.7" stroke="#000000" stroke-width="1" fill="none"></path></g></g><g stroke-linecap="round" transform="translate(12.178175426664666 970.3594122623792) rotate(0 114 109.14287022181918)"><path d="M113.08 0.58 C146.99 32.53, 182.74 66.69, 227.69 109.6 M114.39 -0.92 C153.4 36.93, 191.37 73.38, 227.68 109.22 M226.49 108.89 C206.56 130.17, 185.09 152.65, 114.07 216.73 M227.92 109.27 C205.6 132.95, 180.92 155.35, 115.45 217.92 M116.31 217.02 C77.73 183.55, 37.98 145.36, -1.87 111.26 M114.23 217.43 C93.04 195.65, 68.01 173.07, -0.9 109.27 M0.88 109.11 C46.25 66.95, 88.37 24.03, 113.05 0.05 M0.35 110.44 C25.35 86.32, 50.74 60.62, 114.12 -0.29" stroke="#000000" stroke-width="1" fill="none"></path></g><g transform="translate(17.178175426664666 1054.5022824841983) rotate(0 109 25)"><text x="109" y="17" font-family="Virgil, Segoe UI Emoji" font-size="20px" fill="#000000" text-anchor="middle" style="white-space: pre;" direction="ltr">User provides</text><text x="109" y="42" font-family="Virgil, Segoe UI Emoji" font-size="20px" fill="#000000" text-anchor="middle" style="white-space: pre;" direction="ltr">signature?</text></g><g stroke-linecap="round"><g transform="translate(246.6068166097009 1077.9517244295118) rotate(0 67.65429186763515 0.04258737591996642)"><path d="M0.35 -1.08 C22.69 -0.96, 111.52 -0.53, 133.85 -0.41 M-0.92 0.96 C21.84 1.37, 113.83 1.05, 136.23 1.02" stroke="#000000" stroke-width="1" fill="none"></path></g><g transform="translate(246.6068166097009 1077.9517244295118) rotate(0 67.65429186763515 0.04258737591996642)"><path d="M106.26 10.31 C115.78 8.13, 123.74 5.04, 136.96 0.33 M108.82 11.75 C118.51 7.9, 127.18 3.73, 135.25 1.99" stroke="#000000" stroke-width="1" fill="none"></path></g><g transform="translate(246.6068166097009 1077.9517244295118) rotate(0 67.65429186763515 0.04258737591996642)"><path d="M106.21 -10.21 C115.55 -6.61, 123.53 -3.91, 136.96 0.33 M108.77 -8.77 C118.36 -5.56, 127.04 -2.68, 135.25 1.99" stroke="#000000" stroke-width="1" fill="none"></path></g></g><g transform="translate(297.82115463983496 1045.4517767453601) rotate(0 12.5 12.5)"><text x="12.5" y="17" font-family="Virgil, Segoe UI Emoji" font-size="20px" fill="#000000" text-anchor="middle" style="white-space: pre;" direction="ltr">No</text></g><g stroke-linecap="round"><g transform="translate(128.6179469716701 1195.069298675121) rotate(0 -0.16758347280574526 34.762754908439376)"><path d="M-0.62 -0.2 C-0.77 11.56, -0.56 57.72, -0.57 69.43 M1.26 -1.34 C0.9 10.69, -1.12 59.32, -1.59 70.87" stroke="#000000" stroke-width="1" fill="none"></path></g><g transform="translate(128.6179469716701 1195.069298675121) rotate(0 -0.16758347280574526 34.762754908439376)"><path d="M-11.01 42.06 C-8.26 51.34, -4.23 60.46, -0.71 69.64 M-9.99 42.13 C-8.91 47.4, -7.68 55.08, -2.35 70.12" stroke="#000000" stroke-width="1" fill="none"></path></g><g transform="translate(128.6179469716701 1195.069298675121) rotate(0 -0.16758347280574526 34.762754908439376)"><path d="M9.49 42.9 C5.5 51.8, 2.78 60.64, -0.71 69.64 M10.51 42.97 C7.33 48.15, 4.3 55.66, -2.35 70.12" stroke="#000000" stroke-width="1" fill="none"></path></g></g><g stroke-linecap="round" transform="translate(11.606799171084504 1275.788227831576) rotate(0 114 109.14287022181918)"><path d="M114.78 -0.31 C137.73 23.99, 161.14 47.21, 226.77 108.15 M114.85 -0.32 C157.09 39.52, 201.25 81.04, 227.25 109.45 M227.85 109.07 C190.45 143.15, 156.88 180.43, 114.83 216.82 M227.4 110.45 C182.86 152.63, 138.39 194.79, 115.65 217.65 M114.87 216.41 C75.93 179.08, 34.24 142.16, -1.53 108.3 M114.76 217.39 C69.46 176.41, 25.55 134.32, 0.44 109.55 M0.44 108.05 C41.5 69.29, 84.71 31.33, 115.7 0.88 M-0.77 109.12 C43.6 66.11, 89.27 23.2, 114.58 0.76" stroke="#000000" stroke-width="1" fill="none"></path></g><g transform="translate(16.606799171084504 1347.4310980533953) rotate(0 109 37.5)"><text x="109" y="18" font-family="Virgil, Segoe UI Emoji" font-size="20px" fill="#000000" text-anchor="middle" style="white-space: pre;" direction="ltr">Does user</text><text x="109" y="43" font-family="Virgil, Segoe UI Emoji" font-size="20px" fill="#000000" text-anchor="middle" style="white-space: pre;" direction="ltr">appear to be</text><text x="109" y="68" font-family="Virgil, Segoe UI Emoji" font-size="20px" fill="#000000" text-anchor="middle" style="white-space: pre;" direction="ltr">a bot?</text></g><g stroke-linecap="round"><g transform="translate(246.03544035412028 1383.3805399987089) rotate(0 66.58134443340157 -0.3630148395337187)"><path d="M-0.18 -0.24 C22.33 -0.32, 112.37 -0.51, 134.9 -0.63 M-1.74 -1.41 C20.67 -1.32, 111.48 0.46, 134.18 0.69" stroke="#000000" stroke-width="1" fill="none"></path></g><g transform="translate(246.03544035412028 1383.3805399987089) rotate(0 66.58134443340157 -0.3630148395337187)"><path d="M105.44 11.25 C113.2 8.65, 120.7 3.14, 135.69 1.51 M105.06 9.53 C117.3 6.22, 126.06 2.79, 134.33 0.29" stroke="#000000" stroke-width="1" fill="none"></path></g><g transform="translate(246.03544035412028 1383.3805399987089) rotate(0 66.58134443340157 -0.3630148395337187)"><path d="M105.75 -9.27 C113.4 -6.05, 120.82 -5.74, 135.69 1.51 M105.37 -10.99 C117.47 -6.71, 126.12 -2.56, 134.33 0.29" stroke="#000000" stroke-width="1" fill="none"></path></g></g><g transform="translate(293.2497783842539 1350.8805923145571) rotate(0 16.5 12.5)"><text x="16.5" y="17" font-family="Virgil, Segoe UI Emoji" font-size="20px" fill="#000000" text-anchor="middle" style="white-space: pre;" direction="ltr">Yes</text></g><g stroke-linecap="round" transform="translate(388.6069386800134 1341.0949172657288) rotate(0 90 55)"><path d="M-0.69 0.88 C50.01 -2.5, 103.98 0.16, 181.4 -0.31 M0.96 -0.76 C47.44 1.22, 96.52 1.37, 180.79 -0.07 M180.44 1.37 C178.98 26.42, 180.99 54.95, 179.62 108.81 M179.49 0.06 C180.25 37.33, 180.03 76.74, 179.9 109.93 M179.02 108.29 C141.32 106.55, 107.43 108.95, -1.61 109.52 M179.8 110.65 C142.62 111.16, 104.99 111.87, -0.7 110.22 M1.52 110.36 C0.68 88.63, 1.75 66.96, 1.97 -1.55 M0.69 109.82 C-0.09 87.43, 0.2 63.52, -0.75 -0.96" stroke="#000000" stroke-width="1" fill="none"></path></g><g transform="translate(393.6069386800134 1346.0949172657288) rotate(0 85 50)"><text x="85" y="17" font-family="Virgil, Segoe UI Emoji" font-size="20px" fill="#000000" text-anchor="middle" style="white-space: pre;" direction="ltr">Provide PDF </text><text x="85" y="42" font-family="Virgil, Segoe UI Emoji" font-size="20px" fill="#000000" text-anchor="middle" style="white-space: pre;" direction="ltr">application form, </text><text x="85" y="67" font-family="Virgil, Segoe UI Emoji" font-size="20px" fill="#000000" text-anchor="middle" style="white-space: pre;" direction="ltr">tell user to send</text><text x="85" y="92" font-family="Virgil, Segoe UI Emoji" font-size="20px" fill="#000000" text-anchor="middle" style="white-space: pre;" direction="ltr">it to their ERO</text></g><g transform="translate(143.9639769054595 1210.880635911097) rotate(0 16.5 12.5)"><text x="16.5" y="17" font-family="Virgil, Segoe UI Emoji" font-size="20px" fill="#000000" text-anchor="middle" style="white-space: pre;" direction="ltr">Yes</text></g><g stroke-linecap="round"><g transform="translate(126.46717123591247 1815.0941412951297) rotate(0 0.18748116204267262 34.88447268131307)"><path d="M-0.74 -1.11 C-0.49 10.62, 0.76 58.99, 1.04 70.88 M1.08 0.93 C1.28 12.24, 0.64 57.26, 0.57 69.01" stroke="#000000" stroke-width="1" fill="none"></path></g><g transform="translate(126.46717123591247 1815.0941412951297) rotate(0 0.18748116204267262 34.88447268131307)"><path d="M-11.25 42.23 C-5.81 49.69, -4.3 55.15, -0.99 67.04 M-9.96 40.87 C-6.07 52.8, -1.79 62.76, -0.21 68.1" stroke="#000000" stroke-width="1" fill="none"></path></g><g transform="translate(126.46717123591247 1815.0941412951297) rotate(0 0.18748116204267262 34.88447268131307)"><path d="M9.27 42.43 C9.26 49.71, 5.33 55.13, -0.99 67.04 M10.56 41.07 C6.32 52.77, 2.47 62.64, -0.21 68.1" stroke="#000000" stroke-width="1" fill="none"></path></g></g><g stroke-linecap="round" transform="translate(37.39266495477614 1898.2859911237445) rotate(0 90 55)"><path d="M1.51 0.82 C63.29 1.35, 123.15 0.1, 178.03 1.93 M0.15 -0.4 C41.19 0.92, 80.32 0.22, 179.09 0.22 M181.85 -0.83 C179.53 39.37, 180.81 80.39, 180.73 108.98 M180.43 0.81 C180.62 33.54, 179.78 67.85, 179.03 109.51 M181.73 110.69 C139.8 107.98, 101.03 107.01, 1.79 109.6 M180.63 110.26 C113.64 109.41, 47.71 109.22, -0.8 110.76 M1.77 111.46 C1.58 73.46, -2.14 39.42, -0.02 1.37 M-0.13 110.18 C-0.3 77.97, 1.22 47.07, -0.99 -0.14" stroke="#000000" stroke-width="1" fill="none"></path></g><g transform="translate(42.39266495477614 1916.2859911237445) rotate(0 85 37.5)"><text x="85" y="18" font-family="Virgil, Segoe UI Emoji" font-size="20px" fill="#000000" text-anchor="middle" style="white-space: pre;" direction="ltr">Email the PDF </text><text x="85" y="43" font-family="Virgil, Segoe UI Emoji" font-size="20px" fill="#000000" text-anchor="middle" style="white-space: pre;" direction="ltr">application form </text><text x="85" y="68" font-family="Virgil, Segoe UI Emoji" font-size="20px" fill="#000000" text-anchor="middle" style="white-space: pre;" direction="ltr">to their ERO</text></g><g stroke-linecap="round" transform="translate(385.9998917352593 1037.9691692533947) rotate(0 90 43.142852783203125)"><path d="M1.4 -0.31 C36.74 -2.3, 72.81 1.19, 178.49 -1.51 M0.79 -0.07 C43.57 -0.06, 87.15 0.94, 180.69 -0.08 M179.62 -1.19 C181.7 18.82, 181.52 38.08, 180.11 87.59 M179.9 -0.07 C179.44 21.04, 179.4 40.34, 179.14 85.52 M178.39 85.8 C139.54 85.46, 104.47 86.51, 1.3 87.17 M179.3 86.5 C133.06 86.78, 87.27 87.52, 0.18 86.64 M1.97 84.74 C-2.52 56.01, -0.79 28.28, -0.35 -0.83 M-0.75 85.32 C0.87 53.01, -0.88 21.18, -0.75 0.75" stroke="#000000" stroke-width="1" fill="none"></path></g><g transform="translate(390.9998917352593 1043.6120220365979) rotate(0 85 37.5)"><text x="85" y="18" font-family="Virgil, Segoe UI Emoji" font-size="20px" fill="#000000" text-anchor="middle" style="white-space: pre;" direction="ltr">Tell user to </text><text x="85" y="43" font-family="Virgil, Segoe UI Emoji" font-size="20px" fill="#000000" text-anchor="middle" style="white-space: pre;" direction="ltr">contact their </text><text x="85" y="68" font-family="Virgil, Segoe UI Emoji" font-size="20px" fill="#000000" text-anchor="middle" style="white-space: pre;" direction="ltr">ERO</text></g><g stroke-linecap="round" transform="translate(10 1585.5785858754282) rotate(0 114 109.14287022181921)"><path d="M114.35 -1.56 C152.34 39.62, 191.33 73.7, 226.89 110.29 M114.54 -0.78 C144.35 28.92, 175.35 57.23, 227.27 110.92 M228.9 109.26 C199.31 136.3, 169.48 166.62, 113.73 219.15 M227.06 110.63 C183.83 150.72, 140.86 191.73, 114.15 219.15 M113.2 216.83 C79.17 181.37, 40.19 146.4, -0.89 111.26 M114.02 218.31 C77.47 183.99, 40.96 148.28, 0.44 110.89 M-1.76 109.41 C41.77 71.25, 84.32 28.03, 116.53 -0.25 M0.76 109.21 C36.44 75.95, 73.29 41.82, 114.59 0.61" stroke="#000000" stroke-width="1" fill="none"></path></g><g transform="translate(15 1644.7214560972473) rotate(0 109 50)"><text x="109" y="17" font-family="Virgil, Segoe UI Emoji" font-size="20px" fill="#000000" text-anchor="middle" style="white-space: pre;" direction="ltr">Can we</text><text x="109" y="42" font-family="Virgil, Segoe UI Emoji" font-size="20px" fill="#000000" text-anchor="middle" style="white-space: pre;" direction="ltr">identify the</text><text x="109" y="67" font-family="Virgil, Segoe UI Emoji" font-size="20px" fill="#000000" text-anchor="middle" style="white-space: pre;" direction="ltr">ERO from their</text><text x="109" y="92" font-family="Virgil, Segoe UI Emoji" font-size="20px" fill="#000000" text-anchor="middle" style="white-space: pre;" direction="ltr">postcode?</text></g><g stroke-linecap="round"><g transform="translate(244.428641183036 1693.1708980425608) rotate(0 67.34202642454102 -0.21006239921450742)"><path d="M-0.94 -1.18 C21.7 -1.3, 113.2 -1.17, 135.62 -1.12 M0.77 0.81 C23.37 0.85, 112.74 0.06, 135.28 -0.06" stroke="#000000" stroke-width="1" fill="none"></path></g><g transform="translate(244.428641183036 1693.1708980425608) rotate(0 67.34202642454102 -0.21006239921450742)"><path d="M105.19 12.33 C113.68 6.14, 122.09 4.96, 134.48 1.53 M106.25 10.62 C116.13 7.47, 122.94 5.42, 134.86 -0.25" stroke="#000000" stroke-width="1" fill="none"></path></g><g transform="translate(244.428641183036 1693.1708980425608) rotate(0 67.34202642454102 -0.21006239921450742)"><path d="M105.05 -8.19 C113.51 -8.54, 121.96 -3.88, 134.48 1.53 M106.1 -9.9 C115.93 -7.04, 122.78 -3.09, 134.86 -0.25" stroke="#000000" stroke-width="1" fill="none"></path></g></g><g transform="translate(295.64297921316916 1660.670950358409) rotate(0 12.5 12.5)"><text x="12.5" y="17" font-family="Virgil, Segoe UI Emoji" font-size="20px" fill="#000000" text-anchor="middle" style="white-space: pre;" direction="ltr">No</text></g><g stroke-linecap="round" transform="translate(387.00013950892867 1650.885275309581) rotate(0 90 55)"><path d="M-1.51 -1.51 C38.85 -1.44, 79.12 -0.14, 179.85 -0.93 M0.69 -0.08 C39.3 0.52, 79.66 -0.59, 179.4 0.45 M180.11 1.31 C179.13 29.81, 182.03 57.7, 179.87 108.13 M179.14 -0.77 C178.08 40.77, 179.28 79.01, 179.76 109.1 M181.3 110.88 C138.2 110.9, 98.7 108.23, 0.44 108.05 M180.18 110.35 C126.01 112.26, 71.87 112.35, -0.77 109.12 M-0.35 109.17 C1.54 79.97, 0.38 48.93, -1.92 1.53 M-0.75 110.75 C0.69 86.29, 1.24 61.82, -0.84 0.01" stroke="#000000" stroke-width="1" fill="none"></path></g><g transform="translate(392.00013950892867 1655.885275309581) rotate(0 85 50)"><text x="85" y="17" font-family="Virgil, Segoe UI Emoji" font-size="20px" fill="#000000" text-anchor="middle" style="white-space: pre;" direction="ltr">Provide PDF </text><text x="85" y="42" font-family="Virgil, Segoe UI Emoji" font-size="20px" fill="#000000" text-anchor="middle" style="white-space: pre;" direction="ltr">application form, </text><text x="85" y="67" font-family="Virgil, Segoe UI Emoji" font-size="20px" fill="#000000" text-anchor="middle" style="white-space: pre;" direction="ltr">tell user to send</text><text x="85" y="92" font-family="Virgil, Segoe UI Emoji" font-size="20px" fill="#000000" text-anchor="middle" style="white-space: pre;" direction="ltr">it to their ERO</text></g><g transform="translate(146.35717773437523 1520.670993954949) rotate(0 12.5 12.5)"><text x="12.5" y="17" font-family="Virgil, Segoe UI Emoji" font-size="20px" fill="#000000" text-anchor="middle" style="white-space: pre;" direction="ltr">No</text></g><g stroke-linecap="round"><g transform="translate(125.21990888275991 1504.5554257548713) rotate(0 -0.46500901885588064 34.89521126876829)"><path d="M-0.66 0.18 C-0.67 12.09, -0.94 59.09, -0.92 70.57 M1.19 -0.78 C1.07 10.89, -1.7 57.14, -2.12 68.94" stroke="#000000" stroke-width="1" fill="none"></path></g><g transform="translate(125.21990888275991 1504.5554257548713) rotate(0 -0.46500901885588064 34.89521126876829)"><path d="M-10.71 39.49 C-7.63 46.62, -8.16 51.65, -3.95 69.39 M-10.08 39.87 C-7.94 50.33, -4.02 61.12, -1.75 68.43" stroke="#000000" stroke-width="1" fill="none"></path></g><g transform="translate(125.21990888275991 1504.5554257548713) rotate(0 -0.46500901885588064 34.89521126876829)"><path d="M9.79 40.49 C8.27 47.28, 3.15 52.08, -3.95 69.39 M10.42 40.87 C5 50.8, 1.36 61.23, -1.75 68.43" stroke="#000000" stroke-width="1" fill="none"></path></g></g><g transform="translate(141.25010027204257 1834.1118999662851) rotate(0 16.5 12.5)"><text x="16.5" y="17" font-family="Virgil, Segoe UI Emoji" font-size="20px" fill="#000000" text-anchor="middle" style="white-space: pre;" direction="ltr">Yes</text></g></svg>